HIERARCHY
ROOT Hips
{
  OFFSET 0.000000 0.000000 0.000000
  CHANNELS 6 Xposition Yposition Zposition Xrotation Yrotation Zrotation
  JOINT Spine
  {
    OFFSET 1.277922 23.685776 -1.473739
    CHANNELS 3 Xrotation Yrotation Zrotation
    JOINT Chest
    {
      OFFSET 1.277922 23.685776 -1.473739
      CHANNELS 3 Xrotation Yrotation Zrotation
      JOINT Neck
      {
        OFFSET 0.000000 4.227248 0.000000
        CHANNELS 3 Xrotation Yrotation Zrotation
        JOINT Head
        {
          OFFSET 0.000000 3.735021 0.000000
          CHANNELS 3 Xrotation Yrotation Zrotation
          End Site
          {
            OFFSET 0.000000 1.120506 0.000000
          }
        }
      }
      JOINT LeftCollar
      {
        OFFSET 3.000000 4.000000 0.000000
        CHANNELS 3 Xrotation Yrotation Zrotation
        JOINT LeftShoulder
        {
          OFFSET 15.589172 -3.940868 -1.613959
          CHANNELS 3 Xrotation Yrotation Zrotation
          JOINT LeftArm
          {
            OFFSET 1.009262 -19.267075 -10.059340
            CHANNELS 3 Xrotation Yrotation Zrotation
            JOINT LeftForeArm
            {
              OFFSET -7.551586 9.126048 -14.273645
              CHANNELS 3 Xrotation Yrotation Zrotation
              JOINT LeftHand
              {
                OFFSET -2.601524 3.809930 -1.584078
                CHANNELS 3 Xrotation Yrotation Zrotation
                End Site
                {
                  OFFSET -0.780457 1.142979 -0.475223
                }
              }
            }
          }
        }
      }
      JOINT RightCollar
      {
        OFFSET -3.000000 4.000000 0.000000
        CHANNELS 3 Xrotation Yrotation Zrotation
        JOINT RightShoulder
        {
          OFFSET -15.589172 3.940868 1.613959
          CHANNELS 3 Xrotation Yrotation Zrotation
          JOINT RightArm
          {
            OFFSET 0.369772 -24.896812 -13.866074
            CHANNELS 3 Xrotation Yrotation Zrotation
            JOINT RightForeArm
            {
              OFFSET 7.064691 11.192793 -19.148022
              CHANNELS 3 Xrotation Yrotation Zrotation
              JOINT RightHand
              {
                OFFSET 3.786626 5.224959 -4.202100
                CHANNELS 3 Xrotation Yrotation Zrotation
                End Site
                {
                  OFFSET 1.135988 1.567488 -1.260630
                }
              }
            }
          }
        }
      }
    }
  }
  JOINT LeftUpLeg
  {
    OFFSET 9.460444 -0.159481 1.370640
    CHANNELS 3 Xrotation Yrotation Zrotation
    JOINT LeftLeg
    {
      OFFSET 11.476000 -40.598035 -6.922701
      CHANNELS 3 Xrotation Yrotation Zrotation
      JOINT LeftFoot
      {
        OFFSET 10.718289 -38.308795 9.459754
        CHANNELS 3 Xrotation Yrotation Zrotation
        End Site
        {
          OFFSET 3.215487 -11.492639 2.837926
        }
      }
    }
  }
  JOINT RightUpLeg
  {
    OFFSET -9.460444 0.159481 -1.370640
    CHANNELS 3 Xrotation Yrotation Zrotation
    JOINT RightLeg
    {
      OFFSET -1.472079 -34.936613 11.400775
      CHANNELS 3 Xrotation Yrotation Zrotation
      JOINT RightFoot
      {
        OFFSET -12.155832 -39.708799 24.011806
        CHANNELS 3 Xrotation Yrotation Zrotation
        End Site
        {
          OFFSET -3.646750 -11.912640 7.203542
        }
      }
    }
  }
}
MOTION
Frames: 14
Frame Time: 0.083333
0.094380 0.150834 0.145625 1.148959 -0.051734 0.242188 0.000000 0.000000 0.000000 -3.202067 6.630209 -14.414048 -70.761327 -17.675977 -4.499949 0.000000 0.000000 0.000000 3.610675 -5.732073 14.186757 -0.304439 0.497793 -0.956838 1.710946 -1.524847 -0.082203 0.032438 1.131342 -0.740806 0.000000 0.000000 0.000000 3.610675 -5.732073 14.186757 0.199260 -0.224226 0.473801 0.490397 -0.157587 -0.081565 0.079733 0.044242 0.333865 0.000000 0.000000 0.000000 -4.030019 -0.622980 -1.033237 0.954662 -0.204930 -0.512689 0.000000 0.000000 0.000000 -0.137475 -0.200165 -0.931035 -1.382590 -0.851757 -1.264872 0.000000 0.000000 0.000000
0.094386 0.150602 0.146551 0.963882 -0.042585 0.220511 0.000000 0.000000 0.000000 -3.201263 6.644091 -14.333149 -70.584105 -17.574911 -4.417674 0.000000 0.000000 0.000000 3.791986 -5.732034 14.186773 -0.243228 0.485596 -0.927510 1.611030 -1.441124 -0.098908 -0.138739 0.989031 -0.609623 0.000000 0.000000 0.000000 3.791986 -5.732034 14.186773 0.192879 -0.226877 0.471231 0.371641 -0.016230 -0.094815 0.087314 -0.022461 0.268353 0.000000 0.000000 0.000000 -4.100208 -0.708478 -1.001369 1.823632 0.047021 -0.628029 0.000000 0.000000 0.000000 0.057656 -0.174392 -0.798398 -1.456741 -0.947713 -1.496069 0.000000 0.000000 0.000000
0.094528 0.150266 0.148853 2.278424 -0.099008 0.562728 0.000000 0.000000 0.000000 -3.204261 6.596595 -15.120991 -72.173316 -17.824877 -4.453836 0.000000 0.000000 0.000000 2.534814 -5.732365 14.186740 -0.299485 1.320759 -2.548775 4.214438 -3.818946 -0.427015 -0.958440 2.390718 -1.332625 0.000000 0.000000 0.000000 2.534814 -5.732365 14.186740 0.630956 -0.761164 1.436342 0.688957 0.493815 -0.384883 0.219779 -0.248346 0.611220 0.000000 0.000000 0.000000 -5.178418 -0.434433 -2.180241 0.208342 -0.566216 0.081602 0.000000 0.000000 0.000000 -0.202653 -0.633568 -2.675433 -2.963015 -0.608675 -0.308805 0.000000 0.000000 0.000000
0.094851 0.150414 0.151294 2.446807 -0.104529 0.670697 0.000000 0.000000 0.000000 -3.201483 6.649774 -15.056506 -72.726035 -17.246023 -4.130529 0.000000 0.000000 0.000000 2.392491 -5.732217 14.187162 1.073891 1.639041 -3.266200 4.806260 -4.685260 -1.317911 -2.696659 2.494233 -0.971692 0.000000 0.000000 0.000000 2.392491 -5.732217 14.187162 1.358133 -1.538094 2.467285 0.162395 2.165835 -0.950422 0.127653 -0.755421 0.624974 0.000000 0.000000 0.000000 -6.422384 -0.626816 -2.982777 3.104227 0.074795 -0.089766 0.000000 0.000000 0.000000 -0.049122 -1.046077 -4.110993 -3.539695 -0.900203 -0.137250 0.000000 0.000000 0.000000
0.095329 0.150904 0.153762 2.922830 -0.132758 0.675592 0.000000 0.000000 0.000000 -3.210106 6.494495 -14.603000 -73.806410 -16.607435 -4.189020 0.000000 0.000000 0.000000 1.895973 -5.732008 14.187663 3.966480 1.133587 -2.366199 2.859205 -3.880266 -3.168550 -3.513438 2.260501 -0.472212 0.000000 0.000000 0.000000 1.895973 -5.732008 14.187663 2.596758 -2.324291 3.358252 -0.192378 3.703000 -1.613296 -0.384250 -0.913198 0.836155 0.000000 0.000000 0.000000 -6.953632 -0.527583 -3.592979 2.799941 -0.263315 -0.162104 0.000000 0.000000 0.000000 -1.181372 -1.608617 -6.116145 -2.051281 -0.949505 1.149473 0.000000 0.000000 0.000000
0.095797 0.151486 0.154230 2.669891 -0.117911 0.669818 0.000000 0.000000 0.000000 -3.252081 5.721931 -14.142879 -74.528086 -16.191598 -4.052893 0.000000 0.000000 0.000000 1.985889 -5.732335 14.189815 6.374391 0.496800 -0.255811 -0.389718 -2.487272 -5.296009 -3.247144 2.074529 -0.136545 0.000000 0.000000 0.000000 1.985889 -5.732335 14.189815 3.652728 -1.927659 3.392843 -0.313606 4.245565 -1.749858 -0.844794 -0.951554 0.843417 0.000000 0.000000 0.000000 -6.719023 -0.488982 -4.054892 3.217461 -0.226471 0.012970 0.000000 0.000000 0.000000 -0.856645 -1.865448 -6.883863 -1.564156 -0.705529 2.135516 0.000000 0.000000 0.000000
0.096232 0.151794 0.153129 1.311860 -0.038590 0.636941 0.000000 0.000000 0.000000 -3.306011 4.726411 -14.000568 -74.340426 -16.355745 -3.772399 0.000000 0.000000 0.000000 3.110194 -5.732398 14.201235 7.248414 0.983522 0.679611 -2.114876 -2.272408 -6.115526 -2.463529 2.343485 -0.630545 0.000000 0.000000 0.000000 3.110194 -5.732398 14.201235 4.466755 -0.903030 3.429748 -0.277510 4.114342 -1.896112 -1.374738 -0.528696 0.944432 0.000000 0.000000 0.000000 -5.147658 -0.505016 -4.152602 4.157551 0.153069 0.267412 0.000000 0.000000 0.000000 0.377227 -2.041676 -7.112504 -1.914701 -0.115203 3.153792 0.000000 0.000000 0.000000
0.097005 0.151809 0.152102 -1.093917 0.101779 0.594518 0.000000 0.000000 0.000000 -3.338096 4.131173 -14.227621 -73.164879 -16.840134 -3.333824 0.000000 0.000000 0.000000 5.349598 -5.732087 14.216420 6.996215 2.431557 0.184436 -1.938114 -3.584517 -5.711847 -2.066028 2.738568 -1.631746 0.000000 0.000000 0.000000 5.349598 -5.732087 14.216420 4.377787 0.173548 3.668526 0.157988 3.698212 -2.001719 -1.578298 -0.239069 0.929706 0.000000 0.000000 0.000000 -1.797464 -0.397984 -4.045693 5.662094 0.755832 0.306238 0.000000 0.000000 0.000000 2.645301 -2.117075 -6.774476 -3.038980 0.154452 3.122299 0.000000 0.000000 0.000000
0.097758 0.151422 0.153428 -1.073860 0.099998 0.586400 0.000000 0.000000 0.000000 -3.290411 5.011387 -14.932327 -74.735467 -17.691209 -4.252356 0.000000 0.000000 0.000000 5.520056 -5.732322 14.205722 4.706532 2.464005 -0.283501 1.754319 -4.657162 -5.373823 -2.799279 2.702039 -2.561531 0.000000 0.000000 0.000000 5.520056 -5.732322 14.205722 3.057388 -0.543355 4.599263 0.834908 3.384453 -2.418814 -1.032573 -0.244308 1.057565 0.000000 0.000000 0.000000 0.183047 0.170880 -3.832176 4.482300 0.353279 0.254947 0.000000 0.000000 0.000000 2.560690 -1.950960 -6.238138 -3.911440 0.308091 2.806819 0.000000 0.000000 0.000000
0.098337 0.150717 0.155668 -0.914885 0.105903 0.810642 0.000000 0.000000 0.000000 -3.239083 5.963765 -15.584992 -76.379328 -17.969047 -5.047635 0.000000 0.000000 0.000000 5.577429 -5.733372 14.196005 3.272484 2.017637 -0.567873 2.957588 -5.690320 -4.813497 -2.820099 2.615994 -3.617876 0.000000 0.000000 0.000000 5.577429 -5.733372 14.196005 1.660694 -1.575593 5.497785 2.154284 2.953947 -3.052063 -0.691221 -0.133702 1.298586 0.000000 0.000000 0.000000 1.463511 0.441370 -3.154249 2.775944 -0.032824 0.012447 0.000000 0.000000 0.000000 2.463379 -1.748730 -5.767578 -4.535241 0.477971 2.500580 0.000000 0.000000 0.000000
0.098557 0.150057 0.157106 -0.333935 0.093666 1.169983 0.000000 0.000000 0.000000 -3.183913 6.986276 -16.124228 -77.514819 -18.436314 -6.420303 0.000000 0.000000 0.000000 5.244095 -5.734492 14.189159 3.046821 1.044365 -0.434102 2.995436 -6.188856 -4.951541 -2.882811 2.199287 -5.040305 0.000000 0.000000 0.000000 5.244095 -5.734492 14.189159 1.250476 -2.835559 6.085020 2.891755 3.010219 -3.284893 -0.778034 -0.076335 1.530270 0.000000 0.000000 0.000000 0.906529 0.221845 -2.119343 2.853518 0.454354 0.144210 0.000000 0.000000 0.000000 1.639956 -1.634745 -5.791357 -4.434258 0.800562 2.681721 0.000000 0.000000 0.000000
0.098764 0.149400 0.156749 0.584216 0.047169 1.371421 0.000000 0.000000 0.000000 -3.151065 7.589887 -16.405969 -78.125087 -18.220169 -6.689352 0.000000 0.000000 0.000000 4.481716 -5.735150 14.186765 3.420943 0.415629 -0.468022 2.544558 -7.122031 -5.412531 -2.937228 2.407090 -5.847328 0.000000 0.000000 0.000000 4.481716 -5.735150 14.186765 0.576698 -3.647973 6.273527 3.809036 2.848990 -3.390713 -1.245384 0.129848 1.460052 0.000000 0.000000 0.000000 -0.841189 -0.130863 -1.047537 5.800450 1.799167 1.055975 0.000000 0.000000 0.000000 -0.958807 -1.753801 -6.614433 -2.924024 1.826969 4.277153 0.000000 0.000000 0.000000
0.098856 0.148782 0.156639 0.510118 0.071886 1.719929 0.000000 0.000000 0.000000 -3.200323 6.707453 -16.487773 -77.651523 -17.194575 -5.043437 0.000000 0.000000 0.000000 4.410500 -5.734393 14.188274 3.523000 0.908601 -0.274237 2.459701 -6.196417 -5.483050 -2.612211 2.786293 -4.553085 0.000000 0.000000 0.000000 4.410500 -5.734393 14.188274 1.094841 -2.848070 5.998626 3.625356 2.760593 -3.460582 -1.348262 0.306093 1.593302 0.000000 0.000000 0.000000 -3.225277 -0.898112 -0.568593 11.684982 3.343647 0.070514 0.000000 0.000000 0.000000 -4.078800 -2.163662 -8.283343 0.909558 2.477617 5.629156 0.000000 0.000000 0.000000
0.098287 0.149720 0.157262 0.603037 0.090091 2.155222 0.000000 0.000000 0.000000 -3.271499 5.428198 -15.823332 -77.176706 -15.520508 -3.475641 0.000000 0.000000 0.000000 4.088317 -5.733300 14.192368 4.792305 -0.591612 2.700519 -0.074810 -0.064723 -6.214490 -0.847032 1.872961 -1.908403 0.000000 0.000000 0.000000 4.088317 -5.733300 14.192368 2.428444 -1.798738 4.807363 2.588658 2.472127 -3.628643 -1.360719 0.636308 1.855293 0.000000 0.000000 0.000000 -3.387142 -0.892866 -1.065698 11.212212 3.134931 -0.488566 0.000000 0.000000 0.000000 -3.934123 -2.429751 -9.504023 -0.084760 2.271124 5.546962 0.000000 0.000000 0.000000
